<?xml version="1.0" encoding="UTF-8"?>
<svg width="20px" height="16px" viewBox="0 0 20 16" version="1.1" xmlns="http://www.w3.org/2000/svg" xmlns:xlink="http://www.w3.org/1999/xlink">
    <!-- Generator: Sketch 46.2 (44496) - http://www.bohemiancoding.com/sketch -->
    <title>lnr-license@2x</title>
    <desc>Created with Sketch.</desc>
    <defs></defs>
    <g id="Welcome" stroke="none" stroke-width="1" fill="none" fill-rule="evenodd">
        <g id="Desktop-lg" transform="translate(-1164.000000, -787.000000)" fill-rule="nonzero" fill="#FFFFFF">
            <g id="ShouterBox" transform="translate(-2.000000, 745.000000)">
                <g id="lnr-license" transform="translate(1166.000000, 42.000000)">
                    <path d="M18.5,16 L1.5,16 C0.673,16 0,15.327 0,14.5 L0,1.5 C0,0.673 0.673,0 1.5,0 L18.5,0 C19.327,0 20,0.673 20,1.5 L20,14.5 C20,15.327 19.327,16 18.5,16 Z M1.5,1 C1.224,1 1,1.224 1,1.5 L1,14.5 C1,14.776 1.224,15 1.5,15 L18.5,15 C18.776,15 19,14.776 19,14.5 L19,1.5 C19,1.224 18.776,1 18.5,1 L1.5,1 Z" id="Shape"></path>
                    <path d="M9.5,4 L3.5,4 C3.224,4 3,3.776 3,3.5 C3,3.224 3.224,3 3.5,3 L9.5,3 C9.776,3 10,3.224 10,3.5 C10,3.776 9.776,4 9.5,4 Z" id="Shape"></path>
                    <path d="M9.5,7 L3.5,7 C3.224,7 3,6.776 3,6.5 C3,6.224 3.224,6 3.5,6 L9.5,6 C9.776,6 10,6.224 10,6.5 C10,6.776 9.776,7 9.5,7 Z" id="Shape"></path>
                    <path d="M9.5,9 L3.5,9 C3.224,9 3,8.776 3,8.5 C3,8.224 3.224,8 3.5,8 L9.5,8 C9.776,8 10,8.224 10,8.5 C10,8.776 9.776,9 9.5,9 Z" id="Shape"></path>
                    <path d="M9.5,11 L3.5,11 C3.224,11 3,10.776 3,10.5 C3,10.224 3.224,10 3.5,10 L9.5,10 C9.776,10 10,10.224 10,10.5 C10,10.776 9.776,11 9.5,11 Z" id="Shape"></path>
                    <path d="M8.5,13 L3.5,13 C3.224,13 3,12.776 3,12.5 C3,12.224 3.224,12 3.5,12 L8.5,12 C8.776,12 9,12.224 9,12.5 C9,12.776 8.776,13 8.5,13 Z" id="Shape"></path>
                    <path d="M17.943,4.544 L17.13,3.953 L16.819,2.997 L15.814,2.997 L15.001,2.406 L14.188,2.997 L13.183,2.997 L12.872,3.953 L12.059,4.544 L12.37,5.5 L12.059,6.456 L12.872,7.047 L13.004,7.453 C13.002,7.469 13.002,7.484 13.002,7.5 L13.002,12.5 C13.002,12.702 13.124,12.885 13.311,12.962 C13.498,13.039 13.713,12.997 13.856,12.854 L15.002,11.708 L16.148,12.854 C16.244,12.95 16.371,13.001 16.502,13 C16.566,13 16.631,12.988 16.693,12.962 C16.88,12.885 17.002,12.702 17.002,12.5 L17.002,7.5 C17.002,7.484 17.001,7.468 17,7.453 L17.132,7.047 L17.945,6.456 L17.634,5.5 L17.945,4.544 L17.943,4.544 Z M13.233,4.926 L13.721,4.571 L13.908,3.997 L14.512,3.997 L15,3.642 L15.488,3.997 L16.092,3.997 L16.279,4.571 L16.767,4.926 L16.58,5.5 L16.767,6.074 L16.279,6.429 L16.092,7.003 L15.488,7.003 L15,7.358 L14.512,7.003 L13.908,7.003 L13.721,6.429 L13.233,6.074 L13.42,5.5 L13.233,4.926 L13.233,4.926 Z M15.354,10.646 C15.159,10.451 14.842,10.451 14.647,10.646 L14.001,11.292 L14.001,8.002 L14.188,8.002 L15.001,8.593 L15.814,8.002 L16.001,8.002 L16.001,11.292 L15.355,10.646 L15.354,10.646 Z" id="Shape"></path>
                </g>
            </g>
        </g>
    </g>
</svg>