<?xml version="1.0" encoding="UTF-8"?>
<svg width="20px" height="20px" viewBox="0 0 20 20" version="1.1" xmlns="http://www.w3.org/2000/svg" xmlns:xlink="http://www.w3.org/1999/xlink">
    <!-- Generator: Sketch 46.2 (44496) - http://www.bohemiancoding.com/sketch -->
    <title>lnr-thumbs-up@2x</title>
    <desc>Created with Sketch.</desc>
    <defs></defs>
    <g id="Welcome" stroke="none" stroke-width="1" fill="none" fill-rule="evenodd">
        <g id="Desktop-lg" transform="translate(-632.000000, -783.000000)" fill-rule="nonzero" fill="#FFFFFF">
            <g id="ShouterBox" transform="translate(-2.000000, 745.000000)">
                <g id="lnr-thumbs-up" transform="translate(634.000000, 38.000000)">
                    <path d="M18.916,11.208 C19.359,10.697 19.611,9.853 19.611,9.049 C19.611,8.518 19.496,8.053 19.278,7.704 C18.994,7.25 18.54,7 18,7 L15.382,7 C16.807,4.409 17.167,2.457 16.452,1.193 C15.953,0.312 15.039,-4.4408921e-16 14.407,-4.4408921e-16 C14.157,-4.4408921e-16 13.945,0.185 13.912,0.433 C13.733,1.752 12.724,3.326 11.144,4.751 C9.63,6.116 7.77,7.207 5.858,7.861 C5.617,7.353 5.1,7.001 4.502,7.001 L1.502,7.001 C0.675,7.001 0.002,7.674 0.002,8.501 L0.002,17.501 C0.002,18.328 0.675,19.001 1.502,19.001 L4.502,19.001 C5.136,19.001 5.678,18.606 5.898,18.049 C7.859,18.295 8.597,18.689 9.312,19.071 C10.207,19.549 11.051,20.001 13.815,20.001 C14.535,20.001 15.213,19.813 15.725,19.472 C16.225,19.139 16.545,18.671 16.651,18.129 C17.05,17.967 17.404,17.593 17.675,17.037 C17.939,16.496 18.11,15.805 18.11,15.276 C18.11,15.177 18.104,15.086 18.093,15.002 C18.346,14.816 18.573,14.529 18.76,14.151 C19.03,13.606 19.192,12.923 19.192,12.325 C19.192,11.901 19.113,11.548 18.958,11.274 C18.945,11.252 18.932,11.23 18.919,11.209 L18.916,11.208 Z M4.5,18 L1.5,18 C1.224,18 1,17.776 1,17.5 L1,8.5 C1,8.224 1.224,8 1.5,8 L4.5,8 C4.776,8 5,8.224 5,8.5 L5,17.499 C5,17.499 5,17.5 5,17.5 C5,17.776 4.776,18 4.5,18 L4.5,18 Z M18.339,10.274 C18.188,10.578 18.035,10.688 17.969,10.688 C17.693,10.688 17.469,10.912 17.469,11.188 C17.469,11.464 17.693,11.688 17.969,11.688 C18.011,11.688 18.041,11.688 18.086,11.766 C18.152,11.883 18.19,12.086 18.19,12.324 C18.19,12.769 18.064,13.298 17.862,13.706 C17.664,14.105 17.463,14.25 17.375,14.25 C17.099,14.25 16.875,14.474 16.875,14.75 C16.875,14.927 16.967,15.083 17.106,15.172 C17.137,15.489 16.989,16.337 16.605,16.89 C16.46,17.099 16.307,17.219 16.187,17.219 C15.911,17.219 15.687,17.443 15.687,17.719 C15.687,18.599 14.715,19 13.812,19 C11.299,19 10.595,18.624 9.78,18.188 C9.018,17.781 8.162,17.323 5.999,17.054 L5.999,8.867 C8.1,8.178 10.151,6.99 11.811,5.494 C13.404,4.058 14.45,2.506 14.805,1.068 C15.077,1.155 15.384,1.339 15.581,1.686 C15.915,2.276 16.165,3.782 14.088,7.243 C13.995,7.397 13.993,7.59 14.082,7.747 C14.171,7.904 14.337,8.001 14.517,8.001 L18,8.001 C18.199,8.001 18.327,8.071 18.43,8.235 C18.547,8.422 18.611,8.712 18.611,9.05 C18.611,9.474 18.509,9.932 18.339,10.275 L18.339,10.274 Z" id="Shape"></path>
                </g>
            </g>
        </g>
    </g>
</svg>